# xmcd CD database file
#
# Track frame offsets:
#	150
#	15330
#	27612
#	40227
#	56602
#	72030
#	85035
#	101442
#	114285
#	136150
#	149667
#	168622
#	182787
#
# Disc length: 2709 seconds
#
# Revision: 0
# Processed by: cddbd v1.5.1PL0 Copyright (c) Steve Scherf et al.
# Submitted via: CDex 1.51
#
DISCID=ab0a930d
DTITLE=Lisa Lynn - Ten Cents a Dance
DYEAR=1900
DGENRE=Jazz
TTITLE0=Comes Love
TTITLE1=Deed I Do
TTITLE2=I Love Paris
TTITLE3=I Wanna a Little Sugar In My Bowl
TTITLE4=Miss Jenny's Ball
TTITLE5=Nice Work If You Can Get It
TTITLE6=After You've Gone
TTITLE7=All of Me
TTITLE8=You Don't Know What Love Is
TTITLE9=I'm Beginning to See the Light
TTITLE10=Do Nothing Til You Hear From Me
TTITLE11=Bye Bye Black Bird
TTITLE12=Ten Cents a Dance
EXTD=
EXTT0=
EXTT1=
EXTT2=
EXTT3=
EXTT4=
EXTT5=
EXTT6=
EXTT7=
EXTT8=
EXTT9=
EXTT10=
EXTT11=
EXTT12=
PLAYORDER=
